<?xml version="1.0" encoding="UTF-8"?>
<svg width="612px" height="612px" viewBox="0 0 612 612" version="1.1" xmlns="http://www.w3.org/2000/svg" xmlns:xlink="http://www.w3.org/1999/xlink">
    <title>apple_app_icon 2</title>
    <defs>
        <rect id="path-1" x="0" y="0" width="512" height="512" rx="100"></rect>
        <filter x="-14.6%" y="-14.6%" width="129.3%" height="129.3%" filterUnits="objectBoundingBox" id="filter-2">
            <feOffset dx="0" dy="0" in="SourceAlpha" result="shadowOffsetOuter1"></feOffset>
            <feGaussianBlur stdDeviation="25" in="shadowOffsetOuter1" result="shadowBlurOuter1"></feGaussianBlur>
            <feColorMatrix values="0 0 0 0 0   0 0 0 0 0   0 0 0 0 0  0 0 0 0.5 0" type="matrix" in="shadowBlurOuter1"></feColorMatrix>
        </filter>
    </defs>
    <g id="Page-1" stroke="none" stroke-width="1" fill="none" fill-rule="evenodd">
        <g id="apple_app_icon-2" transform="translate(50.000000, 50.000000)" fill-rule="nonzero">
            <g id="apple_app_icon">
                <g id="Rectangle">
                    <use fill="black" fill-opacity="1" filter="url(#filter-2)" xlink:href="#path-1"></use>
                    <use fill="#FFFFFF" xlink:href="#path-1"></use>
                </g>
                <path d="M137,5.68434189e-14 L137,35.3053435 C137,43.3206107 130.636364,50 123,50 L123,50 C115.363636,50 109,43.3206107 109,35.3053435 L109,5.68434189e-14 L136.818182,5.68434189e-14 L137,5.68434189e-14 Z" id="Path" fill="#7C43C7"></path>
                <path d="M206,5.68434189e-14 L206,35.3053435 C206,43.3206107 199.636364,50 192,50 L192,50 C184.363636,50 178,43.3206107 178,35.3053435 L178,5.68434189e-14 L205.818182,5.68434189e-14 L206,5.68434189e-14 Z" id="Path" fill="#7C43C7"></path>
            </g>
        </g>
    </g>
</svg>