<?xml version="1.0" encoding="UTF-8"?>
<svg width="512px" height="512px" viewBox="0 0 512 512" version="1.1" xmlns="http://www.w3.org/2000/svg" xmlns:xlink="http://www.w3.org/1999/xlink">
    <title>nsec</title>
    <g id="Page-1" stroke="none" stroke-width="1" fill="none" fill-rule="evenodd">
        <g id="nsec" fill-rule="nonzero">
            <rect id="Rectangle" fill="#ECE2FA" x="0" y="0" width="512" height="512" rx="103"></rect>
            <path d="M313.434703,117.606306 L313.434703,117.566863 C344.855099,149.041938 344.855099,200.159352 313.434703,231.634427 C305.599291,239.483474 296.543287,245.399842 286.8573,249.344087 L286.8573,281.095258 L274.139521,288.707651 L286.8573,296.320044 L286.8573,311.544829 L274.139521,319.157222 L286.8573,326.769615 L286.8573,349.56735 L270.359623,360.966218 L286.8573,372.365086 L286.8573,395.162822 L264.099169,418 L248.900831,418 L226.1427,395.162822 L226.1427,249.344087 C216.456713,245.399842 207.400709,239.522917 199.565297,231.673869 C168.144901,200.198795 168.144901,149.08138 199.565297,117.606306 C230.985693,86.1312314 282.014307,86.1312314 313.434703,117.606306 Z M257,145 C239.892446,145 226,158.892446 226,176 C226,193.107554 239.892446,207 257,207 C274.107554,207 288,193.107554 288,176 C288,158.892446 274.107554,145 257,145 Z" id="Shape" fill="#7C43C7"></path>
            <path d="M137,5.68434189e-14 L137,35.3053435 C137,43.3206107 130.636364,50 123,50 L123,50 C115.363636,50 109,43.3206107 109,35.3053435 L109,5.68434189e-14 L136.818182,5.68434189e-14 L137,5.68434189e-14 Z" id="Path" fill="#7C43C7"></path>
            <path d="M206,5.68434189e-14 L206,35.3053435 C206,43.3206107 199.636364,50 192,50 L192,50 C184.363636,50 178,43.3206107 178,35.3053435 L178,5.68434189e-14 L205.818182,5.68434189e-14 L206,5.68434189e-14 Z" id="Path" fill="#7C43C7"></path>
        </g>
    </g>
</svg>