<?xml version="1.0" encoding="UTF-8"?>
<svg width="512px" height="512px" viewBox="0 0 512 512" version="1.1" xmlns="http://www.w3.org/2000/svg" xmlns:xlink="http://www.w3.org/1999/xlink">
    <title>pin</title>
    <g id="Page-1" stroke="none" stroke-width="1" fill="none" fill-rule="evenodd">
        <g id="pin" fill-rule="nonzero">
            <rect id="Rectangle" fill="#ECE2FA" x="0" y="0" width="512" height="512" rx="103"></rect>
            <path d="M184.69987,232.192024 L184.69987,208.384048 C184.69987,168.983244 216.654441,137 256.019922,137 C295.385403,137 327.339974,168.983244 327.339974,208.384048 L327.339974,232.192024 L339.213368,232.192024 C352.321914,232.192024 363,242.839812 363,256 L363,351.192024 C363,364.312332 352.361758,375 339.213368,375 L172.786632,375 C159.678086,375 149,364.352212 149,351.192024 L149,256 C149,242.919571 159.678086,232.192024 172.786632,232.192024 L184.660026,232.192024 L184.69987,232.192024 Z M245.769682,313.78392 L245.769682,341 L269.269682,341 L269.269682,313.78392 C276.551926,309.482412 281,301.562814 281,293 C281,279.773869 270.48995,269 257.5,269 C244.549414,269 234,279.733668 234,293 C234,301.562814 238.487437,309.482412 245.730318,313.78392 L245.730318,313.78392 L245.769682,313.78392 Z M220,209.392091 L220,233 L292,233 L292,209.392091 C292,189.857239 275.870391,174 256,174 C236.129609,174 220,189.857239 220,209.392091 L220,209.392091 L220,209.392091 Z" id="Shape" fill="#7C43C7"></path>
            <path d="M137,5.68434189e-14 L137,35.3053435 C137,43.3206107 130.636364,50 123,50 L123,50 C115.363636,50 109,43.3206107 109,35.3053435 L109,5.68434189e-14 L136.818182,5.68434189e-14 L137,5.68434189e-14 Z" id="Path" fill="#7C43C7"></path>
            <path d="M206,5.68434189e-14 L206,35.3053435 C206,43.3206107 199.636364,50 192,50 L192,50 C184.363636,50 178,43.3206107 178,35.3053435 L178,5.68434189e-14 L205.818182,5.68434189e-14 L206,5.68434189e-14 Z" id="Path" fill="#7C43C7"></path>
        </g>
    </g>
</svg>