<?xml version="1.0" encoding="UTF-8"?>
<svg width="140px" height="130px" viewBox="0 0 140 130" version="1.1" xmlns="http://www.w3.org/2000/svg" xmlns:xlink="http://www.w3.org/1999/xlink">
    <title>pin_icon</title>
    <g id="Page-1" stroke="none" stroke-width="1" fill="none" fill-rule="evenodd">
        <g id="pin_icon">
            <rect id="Rectangle" fill="#ECE2FA" x="10.29" y="0" width="129.02" height="129.02" rx="32.92"></rect>
            <rect id="Rectangle" fill="#7C43C7" x="0.82" y="24.68" width="27.66" height="10.47" rx="4.8"></rect>
            <rect id="Rectangle" fill="#7C43C7" x="0" y="59.28" width="27.66" height="10.47" rx="4.8"></rect>
            <rect id="Rectangle" fill="#7C43C7" x="1.52" y="93.87" width="27.66" height="10.47" rx="4.8"></rect>
            <path d="M61.26,58.54 L61.26,52.57 C61.26,42.69 69.28,34.67 79.16,34.67 C89.04,34.67 97.06,42.69 97.06,52.57 L97.06,58.54 L100.04,58.54 C103.33,58.54 106.01,61.21 106.01,64.51 L106.01,88.38 C106.01,91.67 103.34,94.35 100.04,94.35 L58.27,94.35 C54.98,94.35 52.3,91.68 52.3,88.38 L52.3,64.51 C52.3,61.23 54.98,58.54 58.27,58.54 L61.25,58.54 L61.26,58.54 Z M76.18,78.62 L76.18,85.39 L82.15,85.39 L82.15,78.62 C84,77.55 85.13,75.58 85.13,73.45 C85.13,70.16 82.46,67.48 79.16,67.48 C75.87,67.48 73.19,70.15 73.19,73.45 C73.19,75.58 74.33,77.55 76.17,78.62 L76.17,78.62 L76.18,78.62 Z M70.21,52.58 L70.21,58.55 L88.11,58.55 L88.11,52.58 C88.11,47.64 84.1,43.63 79.16,43.63 C74.22,43.63 70.21,47.64 70.21,52.58 L70.21,52.58 L70.21,52.58 Z" id="Shape" fill="#7C43C7"></path>
        </g>
    </g>
</svg>