<?xml version="1.0" encoding="UTF-8"?>
<svg width="512px" height="512px" viewBox="0 0 512 512" version="1.1" xmlns="http://www.w3.org/2000/svg" xmlns:xlink="http://www.w3.org/1999/xlink">
    <title>app_ic_28feb</title>
    <g id="Page-1" stroke="none" stroke-width="1" fill="none" fill-rule="evenodd">
        <g id="app_ic_28feb" fill-rule="nonzero">
            <rect id="Rectangle" fill="#ECE2FA" x="0" y="0" width="512" height="512" rx="103"></rect>
            <path d="M300.96526,154.859094 C272.608618,153.887693 249.029454,161.011297 231.614777,168.6206 C217.436457,174.772803 207.265052,181.410706 201.871126,184.324908 C183.84,194.038912 158.103266,194.686513 157.332705,194.848413 C145.774291,195.819813 121.578678,196.791214 109.557928,201.000616 C98.6159629,204.076717 90.9103538,208.609919 85.208203,216.381123 C82.1259593,220.428625 79.6601644,225.609428 77.5025938,231.761631 C77.5025938,231.761631 77.5025938,231.761631 77.5025938,231.923531 C75.6532476,239.694734 75.190911,246.656438 77.9649303,250.86584 C83.8211933,260.256044 99.6947482,267.865348 106.938021,272.23665 C110.636713,274.503251 118.034098,271.75095 119.421108,270.617649 C127.434941,264.951146 134.678214,260.417944 144.233169,258.960844 C146.236628,258.637043 159.7985,256.208542 166.579436,261.389345 C171.511026,265.113047 175.672055,267.379648 181.374206,270.131949 C188.463366,273.531851 201.562902,277.417452 208.960286,279.684054 C212.196642,280.655454 214.354213,281.141154 214.508325,281.303054 C217.436457,282.112555 221.443373,283.731555 221.443373,286.645757 C221.443373,287.779057 218.669354,291.017059 214.508325,295.226461 C204.028697,305.749966 185.22701,322.101874 183.84,322.587574 C174.901494,326.473176 169.66168,332.625379 167.966446,341.367983 C167.812333,341.853683 167.812333,342.339384 167.658221,342.986984 C167.041772,345.415485 165.962987,347.682086 164.73009,349.624887 C163.497192,351.405788 161.493734,354.48189 158.873827,358.367491 C149.318871,372.614698 132.520643,397.38541 126.818493,406.128014 C126.66438,406.289914 126.510268,406.613715 126.356156,406.775615 C123.1198,411.632617 119.729332,414.061118 115.105967,414.870619 C108.479143,416.003919 103.547553,416.165819 100.619421,421.184722 C100.465309,421.346622 100.465309,421.508522 100.465309,421.670422 C98.9241873,424.908423 100.002973,430.736826 101.23587,434.460528 C102.468768,438.99373 98.9241873,444.660233 98.6159629,445.307833 C95.3796071,451.783836 94.1467096,457.936039 94.454934,464.250142 C94.6090462,466.840544 94.7631584,472.830846 98.9241873,472.992746 C103.085216,473.154647 104.164002,470.564245 104.626338,469.430945 C105.242787,468.135744 107.400357,463.116842 108.016806,461.983541 C110.636713,456.964639 120.654005,446.117334 121.73279,444.822133 C122.965688,443.365032 129.900736,433.812928 138.376906,421.670422 C141.767374,416.813419 145.466067,411.632617 149.164759,406.289914 C163.651304,385.728605 178.291962,364.519694 178.291962,364.519694 C179.833084,362.414993 181.374206,360.310292 183.223552,358.529391 C184.918786,356.910391 186.768132,355.45329 189.233927,354.48189 C194.627853,352.377188 198.480658,348.329687 200.638228,343.148884 C201.254677,341.691783 201.717014,340.072783 202.025238,338.453782 C202.333463,336.834781 223.446832,319.835273 232.539451,312.711669 C235.775806,310.121268 255.81039,301.702464 256.118615,301.864364 C256.118615,302.026264 239.936835,327.444577 233.310011,343.148884 C232.847675,344.120285 232.539451,345.091685 232.231226,345.901185 C231.460665,348.005886 230.38188,353.996189 230.998329,358.529391 C231.152441,359.338892 231.306553,360.148392 231.614777,360.795993 C234.234685,367.271996 239.628611,370.186197 245.94721,368.243396 C247.796557,367.757696 249.645903,366.624395 251.187025,365.814895 C251.957586,365.329195 252.728147,365.005395 253.344595,364.519694 C254.115156,364.195894 254.731605,363.710194 255.502166,363.386394 C257.1974,362.414993 258.892634,361.605493 260.587868,360.957893 C263.053663,360.148392 265.519458,359.338892 267.985253,358.529391 C271.683945,357.396091 275.228525,356.10089 278.927218,354.96759 L291.410305,350.920088 C298.037129,348.815387 304.663952,346.548786 311.290776,344.444085 C312.677786,343.958384 314.064796,343.472684 315.605917,343.148884 C316.222366,342.986984 316.992927,342.663184 317.609376,342.501284 C319.458722,342.015584 321.308068,341.206083 323.773863,341.206083 C325.006761,341.206083 326.239658,341.691783 326.856107,343.148884 C326.856107,343.148884 326.856107,343.148884 326.856107,343.148884 C327.010219,343.310784 327.010219,343.634584 327.164331,343.958384 C327.164331,343.958384 328.089004,350.272487 331.787697,352.700989 C333.637043,353.996189 337.64396,354.96759 340.572091,354.80569 C343.191998,354.64379 346.428354,355.45329 348.123588,357.072291 L349.818822,358.529391 L350.281159,359.015092 C351.822281,360.310292 353.825739,361.119793 355.212749,361.605493 C356.599758,361.929293 359.065553,361.929293 360.606675,360.310292 C361.069012,359.824592 361.377236,359.176992 361.531348,358.529391 C361.993685,356.910391 361.68546,355.29139 361.377236,354.64379 C361.069012,353.348589 360.452563,352.377188 359.990226,351.567688 L358.757329,349.301087 C357.524431,347.196386 356.291534,345.091685 354.904524,342.986984 C354.904524,342.986984 354.904524,342.986984 354.904524,342.986984 C353.825739,341.367983 352.746954,339.587082 351.668168,337.968082 C349.048261,333.92058 346.428354,329.711178 343.808447,325.663676 C340.109755,319.835273 334.407604,317.568672 326.856107,318.378172 C326.547883,318.378172 326.239658,318.378172 325.931434,318.540072 C325.006761,318.701972 319.150498,320.482873 311.136664,323.073274 C290.639744,329.549278 256.426839,340.558483 256.118615,340.720383 C259.663195,333.92058 280.930676,303.159565 286.941051,299.435863 C289.252734,297.978762 290.947968,296.521662 293.105539,295.388361 C295.108997,294.255061 297.42068,293.44556 301.273484,292.63606 C304.047504,292.15036 307.437972,291.502759 311.290776,290.693259 C318.379937,289.236158 326.547883,287.131457 334.253492,285.026756 C339.955642,283.407755 345.349569,281.626854 349.972934,280.007854 C354.133963,278.388853 357.524431,276.769852 359.52789,275.312751 C364.921816,271.26525 368.620509,265.598747 371.240416,259.608444 C372.781538,255.884742 374.014435,251.99914 374.939108,247.951638 C376.326118,241.637535 376.942567,235.809132 376.942567,232.085431 C376.942567,230.79023 376.942567,229.65693 376.942567,229.009329 C376.634342,223.342826 378.329576,219.457225 383.107054,216.866823 C383.261166,216.866823 383.261166,216.704923 383.415278,216.704923 C387.268083,214.600222 411.155471,200.353015 423.022109,179.629805 L423.022109,179.629805 C425.025568,176.068004 426.720802,172.506202 428.261924,168.9444 C430.265382,163.925498 431.652392,158.906595 432.422953,153.563893 C433.039401,148.706891 433.193514,143.687988 432.731177,138.669086 C431.806504,128.955081 428.72426,120.212477 422.713885,112.441273 C420.864539,110.012772 418.86108,107.908071 416.70351,105.80337 C412.850705,102.079668 408.535564,98.8416666 404.374535,95.2798649 C403.141638,94.1465644 401.138179,92.3656635 398.980609,90.4228626 C395.744253,87.3467611 392.353785,83.6230593 391.583224,81.0326581 C390.196214,76.0137557 392.199673,70.8329532 396.668926,69.2139524 C403.29575,66.9473513 414.391827,66.9473513 420.864539,67.4330515 C426.412577,67.9187518 431.960616,65.8140508 432.114728,63.5474497 C432.26884,61.2808486 429.032485,57.8809469 424.717343,56.7476464 C421.326875,55.938146 416.087061,54.6429454 413.004818,52.3763443 C407.456779,48.4907424 401.754628,41.2052389 394.049019,39.5862381 C382.952942,37.3196371 375.401445,41.6909392 371.702752,51.5668439 C366.925275,63.3855496 368.774621,78.1184567 376.48023,90.4228626 C378.021352,92.8513637 379.716586,95.1179648 381.720044,97.2226659 C384.494064,100.298767 387.422195,103.051069 390.504439,105.80337 C393.43257,108.555671 396.514814,111.146073 399.597058,113.736474 C404.066311,117.783976 407.919115,122.155278 411.77192,126.85038 C417.474071,134.135884 416.549398,144.983189 414.237715,153.563893 C412.388369,160.363696 409.768462,165.706399 408.535564,166.839699 C407.919115,167.6492 407.148555,168.2968 406.532106,168.9444 C398.36416,176.715604 390.812663,178.334605 376.48023,177.687005 C370.16163,177.363204 359.373778,173.477603 347.661252,168.9444 C331.479472,162.792197 313.294235,155.506694 301.273484,155.182894 L300.96526,154.859094 Z M363.811563,351.712295 L410.06424,351.712295 C410.989293,348.644262 411.605996,345.253279 411.605996,341.862295 L411.605996,322.969672 C411.605996,305.045902 397.730193,290.513115 380.616702,290.513115 L380,290.513115 C362.88651,290.513115 349.010707,304.561475 349.010707,322.32377 C349.010707,323.856607 349.010707,325.006234 349.010707,325.772652 C349.010707,326.321986 346.953,323.778444 344.940887,321.375854 C343.672107,319.86085 342.615367,317.851318 339.187752,316.002 C335.760138,314.152682 331.438329,314.133797 329.803758,314.152682 C327.998254,314.173541 326.450279,314.400022 325.576017,314.640984 C325.884368,301.4 330.817987,297.618033 338.372591,288.090984 C340.8394,287.283607 342.997859,286.79918 345.618844,286.314754 C349.319058,285.668852 352.556745,284.7 356.102784,283.085246 C358.415418,281.954918 360.4197,280.82459 362.423983,279.209836 C365.044968,277.272131 367.357602,274.85 369.670236,272.104918 C372.445396,268.713934 373.524625,265.807377 375.066381,265.484426 C377.379015,265.161475 376.916488,265 379.537473,265 L380.616702,265 C410.372591,265 434.732334,290.513115 434.732334,321.677869 L434.732334,342.669672 C434.732334,345.737705 434.423983,348.644262 434.115632,351.55082 C443.982869,352.035246 452,360.754918 452,371.25082 L452,442.138525 C452,452.957377 443.520343,462 433.036403,462 L326.963597,462 C316.633833,462 308,453.118852 308,442.138525 L308,371.25082 C308,361.562295 314.783726,353.327049 323.571734,351.712295 C324.188437,351.55082 329.566486,356.74918 329.720662,356.910656 C331.159634,357.879508 335.893718,358.730345 343.922912,359.463165 C350.367388,363.645369 354.427345,365.751097 356.102784,365.780352 C359.586608,365.841181 362.517995,364.062835 363.503212,363.5 C365.815846,362.208197 366.815846,358.655738 366.044968,355.910656 C365.942184,355.587705 365.197716,354.188251 363.811563,351.712295 Z M378.5,379 C386.505208,379 393,385.939481 393,394.492795 C393,399.818444 390.583333,404.337176 386.807292,407.242075 L391.338542,435 L365.963542,435 L370.192708,407.242075 C366.416667,404.498559 364,399.818444 364,394.492795 C364,385.939481 370.494792,379 378.5,379 Z" id="Shape" fill="#7C43C7"></path>
            <path d="M137,5.68434189e-14 L137,35.3053435 C137,43.3206107 130.636364,50 123,50 L123,50 C115.363636,50 109,43.3206107 109,35.3053435 L109,5.68434189e-14 L136.818182,5.68434189e-14 L137,5.68434189e-14 Z" id="Path" fill="#7C43C7"></path>
            <path d="M206,5.68434189e-14 L206,35.3053435 C206,43.3206107 199.636364,50 192,50 L192,50 C184.363636,50 178,43.3206107 178,35.3053435 L178,5.68434189e-14 L205.818182,5.68434189e-14 L206,5.68434189e-14 Z" id="Path" fill="#7C43C7"></path>
        </g>
    </g>
</svg>