<?xml version="1.0" encoding="UTF-8"?>
<svg width="139px" height="129px" viewBox="0 0 139 129" version="1.1" xmlns="http://www.w3.org/2000/svg" xmlns:xlink="http://www.w3.org/1999/xlink">
    <title>welcome_icon</title>
    <g id="Page-1" stroke="none" stroke-width="1" fill="none" fill-rule="evenodd">
        <g id="welcome_icon">
            <rect id="Rectangle" fill="#ECE2FA" x="10.22" y="0" width="128.19" height="128.19" rx="32.71"></rect>
            <g id="Page-1" transform="translate(44.166239, 23.820621)" fill="#7C43C7">
                <path d="M67.0537605,26.0993786 C64.6537605,30.0793786 59.7737605,32.7893786 59.3237605,33.0193786 C58.4137605,33.5093786 58.0737605,34.2093786 58.1337605,35.2693786 C58.1937605,36.3193786 57.9337605,41.5393786 54.7537605,43.8493786 C53.1237605,45.0293786 46.5337605,46.5593786 43.5137605,47.0693786 C41.9637605,47.3393786 41.6037605,47.8093786 40.7437605,48.3193786 C39.5837605,49.0393786 35.4737605,54.7293786 34.7837605,55.9993786 C34.8737605,55.9893786 47.7337605,51.9893786 48.3137605,51.8993786 C49.8437605,51.6693786 51.0037605,52.1093786 51.7537605,53.2193786 C52.4737605,54.2793786 53.1737605,55.3593786 53.8837605,56.4393786 C54.1437605,56.8193786 54.3837605,57.2193786 54.6237605,57.6093786 L54.8737605,58.0193786 C54.9637605,58.1693786 55.0937605,58.3393786 55.1537605,58.5793786 C55.2037605,58.7393786 55.3037605,59.2893786 54.9937605,59.6093786 C54.7037605,59.9093786 54.2037605,59.9093786 53.9437605,59.8393786 C53.6937605,59.7693786 53.3037605,59.6193786 52.9937605,59.3693786 L52.5637605,59.0093786 C52.2237605,58.7193786 51.5937605,58.5793786 51.0937605,58.5993786 C50.5137605,58.6193786 49.7537605,58.4393786 49.3837605,58.2093786 C48.6637605,57.7493786 48.4837605,56.5893786 48.4837605,56.5793786 C48.3937605,56.1993786 48.1137605,56.0893786 47.8537605,56.0893786 C47.3937605,56.0793786 47.0337605,56.2193786 46.6637605,56.3193786 C44.9737605,56.8293786 43.2937605,57.3493786 41.6037605,57.8793786 L39.1837605,58.6293786 C37.9937605,58.9993786 36.8037605,59.3693786 35.6237605,59.7593786 C35.3037605,59.8593786 34.9837605,60.0293786 34.6537605,60.1993786 C34.5137605,60.2693786 34.3737605,60.3393786 34.2337605,60.4093786 C34.0937605,60.4793786 33.9437605,60.5593786 33.8037605,60.6393786 C33.4937605,60.8093786 33.1537605,60.9993786 32.7837605,61.0993786 C31.5837605,61.4593786 30.5237605,60.9393786 30.0237605,59.7293786 C29.7037605,58.9493786 29.9837605,57.4093786 30.1637605,56.9593786 C31.2537605,54.1393786 34.7937605,48.8093786 34.7937605,48.7793786 C34.7337605,48.7593786 30.8737605,50.3093786 30.2337605,50.7893786 C28.4837605,52.1193786 24.3837605,55.2693786 24.3337605,55.5693786 C24.0637605,56.9693786 23.1937605,58.0193786 21.8637605,58.5393786 C20.9037605,58.9093786 20.3237605,59.6693786 19.7537605,60.4193786 C19.7537605,60.4193786 9.48376054,74.5693786 8.79376054,75.3293786 C8.58376054,75.5593786 6.66376054,77.5793786 6.15376054,78.5093786 C6.03376054,78.7393786 5.59376054,79.6693786 5.48376054,79.8993786 C5.39376054,80.0893786 5.18376054,80.5793786 4.39376054,80.5493786 C3.60376054,80.5193786 3.58376054,79.4193786 3.54376054,78.9393786 C3.46376054,77.7693786 3.71376054,76.6193786 4.33376054,75.4193786 C4.39376054,75.2993786 5.08376054,74.2493786 4.83376054,73.4093786 C4.60376054,72.6693786 4.38376054,71.5193786 4.73376054,70.9393786 C5.27376054,70.0293786 6.23376054,69.9893786 7.52376054,69.7793786 C8.41376054,69.6293786 9.06376054,69.1893786 9.69376054,68.2793786 C11.0137605,66.3593786 15.9837605,59.3093786 17.1037605,57.6793786 C17.4037605,57.2493786 17.6337605,56.6993786 17.7437605,56.1493786 C18.0637605,54.5093786 19.0637605,53.3593786 20.8037605,52.6493786 C21.1737605,52.4993786 28.0837605,46.7193786 28.0837605,45.9793786 C28.0837605,45.4493786 27.3337605,45.1593786 26.7537605,44.9993786 C26.6737605,44.9793786 22.3337605,43.8493786 20.3537605,42.9493786 C19.2737605,42.4593786 18.4637605,42.0393786 17.5037605,41.3393786 C16.1937605,40.3793786 13.5837605,40.8393786 13.1937605,40.8993786 C11.3437605,41.1693786 9.96376054,41.9993786 8.40376054,43.0493786 C8.12376054,43.2493786 6.70376054,43.7593786 5.98376054,43.3493786 C4.58376054,42.5493786 1.50376054,41.1193786 0.37376054,39.3893786 C-0.14623946,38.5893786 -0.0762394599,37.2993786 0.29376054,35.8593786 C1.48376054,32.5293786 3.24376054,31.0293786 6.50376054,30.1293786 C8.81376054,29.3293786 13.4837605,29.1593786 15.7337605,28.9793786 C15.8837605,28.9293786 20.8637605,28.8193786 24.3537605,27.0193786 C26.6837605,25.8293786 33.5937605,21.2293786 43.5337605,21.5493786 C47.5537605,21.6793786 55.1437605,25.5993786 58.0737605,25.7193786 C61.0637605,25.8493786 62.5537605,25.5093786 64.2737605,23.7293786 C64.7637605,23.2193786 66.8337605,18.7493786 64.8737605,16.3093786 C64.1437605,15.4093786 63.3937605,14.5993786 62.5237605,13.8593786 C61.3537605,12.8693786 60.1437605,11.9193786 59.0837605,10.7893786 C56.7537605,8.31937858 56.0437605,4.95937858 57.1437605,2.32937858 C57.8537605,0.489378584 59.3337605,-0.310621416 61.4737605,0.109378584 C62.9837605,0.399378584 64.0737605,1.74937858 65.1537605,2.46937858 C65.7537605,2.87937858 66.7637605,3.10937858 67.4237605,3.26937858 C68.2537605,3.46937858 68.8837605,4.09937858 68.8437605,4.52937858 C68.8137605,4.95937858 67.7137605,5.32937858 66.6537605,5.24937858 C65.4037605,5.16937858 63.2637605,5.15937858 61.9737605,5.58937858 C61.1137605,5.89937858 60.7337605,6.84937858 60.9937605,7.78937858 C61.2037605,8.54937858 62.8337605,9.91937858 63.4437605,10.4293786 C64.6737605,11.4393786 65.9837605,12.3493786 66.9937605,13.6093786 C68.1437605,15.0493786 68.7437605,16.6793786 68.9237605,18.4793786 C69.2037605,21.2493786 68.4737605,23.7393786 67.0637605,26.0993786 L67.0537605,26.0993786 Z" id="Path"></path>
            </g>
            <rect id="Rectangle" fill="#7C43C7" x="0.81" y="24.52" width="27.49" height="10.4" rx="4.77"></rect>
            <rect id="Rectangle" fill="#7C43C7" x="0" y="58.9" width="27.49" height="10.4" rx="4.77"></rect>
            <rect id="Rectangle" fill="#7C43C7" x="1.51" y="93.27" width="27.49" height="10.4" rx="4.77"></rect>
        </g>
    </g>
</svg>